<mxfile host="app.diagrams.net" modified="2023-05-25T06:04:02.328Z" agent="Mozilla/5.0 (Windows NT 10.0; Win64; x64) AppleWebKit/537.36 (KHTML, like Gecko) Chrome/111.0.0.0 Safari/537.36 OPR/97.0.0.0" etag="ZziZu_ryKCPGNMkBR8YK" version="21.3.3" type="github">
  <diagram name="Page-1" id="13e1069c-82ec-6db2-03f1-153e76fe0fe0">
    <mxGraphModel dx="1835" dy="1042" grid="1" gridSize="10" guides="1" tooltips="1" connect="1" arrows="1" fold="1" page="1" pageScale="1" pageWidth="1100" pageHeight="850" background="none" math="0" shadow="0">
      <root>
        <mxCell id="0" />
        <mxCell id="1" parent="0" />
        <mxCell id="cns3QZBM6Dh4RrpcEmck-20" value="" style="shape=image;verticalLabelPosition=bottom;labelBackgroundColor=default;verticalAlign=top;imageAspect=0;image=https://coolbackgrounds.io/images/backgrounds/white/pure-white-background-85a2a7fd.jpg;fontSize=16;" vertex="1" parent="1">
          <mxGeometry x="10" y="10" width="1080" height="820" as="geometry" />
        </mxCell>
        <mxCell id="7baba1c4bc27f4b0-2" value="&lt;font color=&quot;#ffffff&quot; style=&quot;font-size: 16px;&quot;&gt;View&lt;br&gt;Monitoring&lt;/font&gt;" style="shape=umlLifeline;perimeter=lifelinePerimeter;whiteSpace=wrap;html=1;container=1;collapsible=0;recursiveResize=0;outlineConnect=0;rounded=1;shadow=0;comic=0;labelBackgroundColor=none;strokeWidth=1;fontFamily=Verdana;fontSize=12;align=center;fillColor=#4D4D4D;" parent="1" vertex="1">
          <mxGeometry x="219.31034482758625" y="65.33333333333333" width="159.38697318007664" height="734.6666666666666" as="geometry" />
        </mxCell>
        <mxCell id="7baba1c4bc27f4b0-10" value="" style="html=1;points=[];perimeter=orthogonalPerimeter;rounded=0;shadow=0;comic=0;labelBackgroundColor=none;strokeWidth=1;fontFamily=Verdana;fontSize=12;align=center;fillColor=#4D4D4D;" parent="7baba1c4bc27f4b0-2" vertex="1">
          <mxGeometry x="71.72413793103449" y="126.66666666666667" width="15.938697318007664" height="481.3333333333333" as="geometry" />
        </mxCell>
        <mxCell id="cns3QZBM6Dh4RrpcEmck-18" value="tampilan dashboard" style="html=1;verticalAlign=bottom;endArrow=open;dashed=1;endSize=8;labelBackgroundColor=none;fontFamily=Verdana;fontSize=16;edgeStyle=elbowEdgeStyle;elbow=vertical;" edge="1" parent="7baba1c4bc27f4b0-2">
          <mxGeometry relative="1" as="geometry">
            <mxPoint x="-135.47892720306515" y="607.126" as="targetPoint" />
            <Array as="points">
              <mxPoint x="-79.69348659003832" y="607.126" />
              <mxPoint x="-15.938697318007664" y="505.79266666666666" />
              <mxPoint x="31.877394636015328" y="328.4593333333333" />
            </Array>
            <mxPoint x="71.72413793103449" y="607.126" as="sourcePoint" />
          </mxGeometry>
        </mxCell>
        <mxCell id="7baba1c4bc27f4b0-3" value="&lt;font color=&quot;#ffffff&quot; style=&quot;font-size: 16px;&quot;&gt;Sistem&lt;/font&gt;" style="shape=umlLifeline;perimeter=lifelinePerimeter;whiteSpace=wrap;html=1;container=1;collapsible=0;recursiveResize=0;outlineConnect=0;rounded=1;shadow=0;comic=0;labelBackgroundColor=none;strokeWidth=1;fontFamily=Verdana;fontSize=12;align=center;fillColor=#4D4D4D;" parent="1" vertex="1">
          <mxGeometry x="474.3295019157088" y="65.33333333333333" width="159.38697318007664" height="734.6666666666666" as="geometry" />
        </mxCell>
        <mxCell id="7baba1c4bc27f4b0-13" value="" style="html=1;points=[];perimeter=orthogonalPerimeter;rounded=0;shadow=0;comic=0;labelBackgroundColor=none;strokeWidth=1;fontFamily=Verdana;fontSize=12;align=center;fillColor=#4D4D4D;" parent="7baba1c4bc27f4b0-3" vertex="1">
          <mxGeometry x="71.72413793103449" y="152" width="15.938697318007664" height="456" as="geometry" />
        </mxCell>
        <mxCell id="7baba1c4bc27f4b0-4" value="&lt;font color=&quot;#ffffff&quot; style=&quot;font-size: 16px; background-color: rgb(77, 77, 77);&quot;&gt;Database&lt;/font&gt;" style="shape=umlLifeline;perimeter=lifelinePerimeter;whiteSpace=wrap;html=1;container=1;collapsible=0;recursiveResize=0;outlineConnect=0;rounded=1;shadow=0;comic=0;labelBackgroundColor=none;strokeWidth=1;fontFamily=Verdana;fontSize=12;align=center;fillColor=#4D4D4D;" parent="1" vertex="1">
          <mxGeometry x="697.4712643678162" y="65.33333333333333" width="159.38697318007664" height="734.6666666666666" as="geometry" />
        </mxCell>
        <mxCell id="cns3QZBM6Dh4RrpcEmck-15" value="menampilkan&lt;br style=&quot;border-color: var(--border-color); font-size: 16px;&quot;&gt;dashboard" style="html=1;verticalAlign=bottom;endArrow=open;dashed=1;endSize=8;labelBackgroundColor=none;fontFamily=Verdana;fontSize=16;edgeStyle=elbowEdgeStyle;elbow=vertical;" edge="1" parent="7baba1c4bc27f4b0-4">
          <mxGeometry relative="1" as="geometry">
            <mxPoint x="-135.47892720306515" y="557.3333333333334" as="targetPoint" />
            <Array as="points">
              <mxPoint x="-79.69348659003832" y="557.3333333333334" />
              <mxPoint x="-15.938697318007664" y="456" />
              <mxPoint x="31.877394636015328" y="278.6666666666667" />
            </Array>
            <mxPoint x="71.72413793103449" y="557.3333333333334" as="sourcePoint" />
          </mxGeometry>
        </mxCell>
        <mxCell id="7baba1c4bc27f4b0-5" value="&lt;font color=&quot;#ffffff&quot; style=&quot;font-size: 16px; background-color: rgb(77, 77, 77);&quot;&gt;Dashboard&lt;/font&gt;" style="shape=umlLifeline;perimeter=lifelinePerimeter;whiteSpace=wrap;html=1;container=1;collapsible=0;recursiveResize=0;outlineConnect=0;rounded=1;shadow=0;comic=0;labelBackgroundColor=none;strokeWidth=1;fontFamily=Verdana;fontSize=12;align=center;fillColor=#4D4D4D;" parent="1" vertex="1">
          <mxGeometry x="920.6130268199234" y="65.33333333333333" width="159.38697318007664" height="734.6666666666666" as="geometry" />
        </mxCell>
        <mxCell id="7baba1c4bc27f4b0-16" value="" style="html=1;points=[];perimeter=orthogonalPerimeter;rounded=0;shadow=0;comic=0;labelBackgroundColor=none;strokeWidth=1;fontFamily=Verdana;fontSize=12;align=center;fillColor=#4D4D4D;" parent="1" vertex="1">
          <mxGeometry x="769.1954022988507" y="242.66666666666666" width="15.938697318007664" height="430.6666666666667" as="geometry" />
        </mxCell>
        <mxCell id="7baba1c4bc27f4b0-17" value="mengambil data" style="html=1;verticalAlign=bottom;endArrow=block;labelBackgroundColor=none;fontFamily=Verdana;fontSize=16;edgeStyle=elbowEdgeStyle;elbow=vertical;" parent="1" source="7baba1c4bc27f4b0-13" target="7baba1c4bc27f4b0-16" edge="1">
          <mxGeometry relative="1" as="geometry">
            <mxPoint x="649.6551724137931" y="242.66666666666666" as="sourcePoint" />
            <Array as="points">
              <mxPoint x="569.9616858237548" y="242.66666666666666" />
            </Array>
          </mxGeometry>
        </mxCell>
        <mxCell id="7baba1c4bc27f4b0-19" value="" style="html=1;points=[];perimeter=orthogonalPerimeter;rounded=0;shadow=0;comic=0;labelBackgroundColor=none;strokeWidth=1;fontFamily=Verdana;fontSize=12;align=center;fillColor=#4D4D4D;" parent="1" vertex="1">
          <mxGeometry x="992.337164750958" y="255.33333333333334" width="15.938697318007664" height="418" as="geometry" />
        </mxCell>
        <mxCell id="7baba1c4bc27f4b0-20" value="menampilkan&lt;br style=&quot;font-size: 16px;&quot;&gt;dashboard" style="html=1;verticalAlign=bottom;endArrow=block;entryX=0;entryY=0;labelBackgroundColor=none;fontFamily=Verdana;fontSize=16;edgeStyle=elbowEdgeStyle;elbow=vertical;" parent="1" source="7baba1c4bc27f4b0-16" target="7baba1c4bc27f4b0-19" edge="1">
          <mxGeometry relative="1" as="geometry">
            <mxPoint x="872.7969348659004" y="255.33333333333334" as="sourcePoint" />
          </mxGeometry>
        </mxCell>
        <mxCell id="7baba1c4bc27f4b0-21" value="menampilkan&lt;br style=&quot;border-color: var(--border-color); font-size: 16px;&quot;&gt;dashboard" style="html=1;verticalAlign=bottom;endArrow=open;dashed=1;endSize=8;labelBackgroundColor=none;fontFamily=Verdana;fontSize=16;edgeStyle=elbowEdgeStyle;elbow=vertical;" parent="1" source="7baba1c4bc27f4b0-19" target="7baba1c4bc27f4b0-16" edge="1">
          <mxGeometry relative="1" as="geometry">
            <mxPoint x="872.7969348659004" y="351.59999999999997" as="targetPoint" />
            <Array as="points">
              <mxPoint x="840.9195402298851" y="572" />
              <mxPoint x="904.6743295019157" y="470.6666666666667" />
              <mxPoint x="952.4904214559388" y="293.33333333333337" />
            </Array>
          </mxGeometry>
        </mxCell>
        <mxCell id="7baba1c4bc27f4b0-11" value="&lt;font style=&quot;font-size: 16px;&quot;&gt;klik laman&lt;/font&gt;" style="html=1;verticalAlign=bottom;endArrow=block;entryX=0;entryY=0;labelBackgroundColor=none;fontFamily=Verdana;fontSize=12;edgeStyle=elbowEdgeStyle;elbow=vertical;" parent="1" source="7baba1c4bc27f4b0-9" target="7baba1c4bc27f4b0-10" edge="1">
          <mxGeometry relative="1" as="geometry">
            <mxPoint x="187.4329501915709" y="204.66666666666666" as="sourcePoint" />
          </mxGeometry>
        </mxCell>
        <mxCell id="7baba1c4bc27f4b0-14" value="memuat laman" style="html=1;verticalAlign=bottom;endArrow=block;entryX=0;entryY=0;labelBackgroundColor=none;fontFamily=Verdana;fontSize=16;edgeStyle=elbowEdgeStyle;elbow=vertical;" parent="1" source="7baba1c4bc27f4b0-10" target="7baba1c4bc27f4b0-13" edge="1">
          <mxGeometry relative="1" as="geometry">
            <mxPoint x="426.51340996168585" y="217.33333333333334" as="sourcePoint" />
          </mxGeometry>
        </mxCell>
        <mxCell id="cns3QZBM6Dh4RrpcEmck-2" value="&lt;font style=&quot;font-size: 20px;&quot;&gt;Mahasiswa&lt;/font&gt;" style="shape=umlActor;verticalLabelPosition=bottom;verticalAlign=top;html=1;outlineConnect=0;strokeWidth=2;strokeColor=#000000;" vertex="1" parent="1">
          <mxGeometry x="45.86" y="30" width="60" height="114" as="geometry" />
        </mxCell>
        <mxCell id="cns3QZBM6Dh4RrpcEmck-6" value="jika error" style="html=1;verticalAlign=bottom;endArrow=open;dashed=1;endSize=8;labelBackgroundColor=none;fontFamily=Verdana;fontSize=16;entryX=1.038;entryY=0.001;entryDx=0;entryDy=0;entryPerimeter=0;exitX=-0.072;exitY=0.579;exitDx=0;exitDy=0;exitPerimeter=0;" edge="1" parent="1" source="7baba1c4bc27f4b0-10" target="cns3QZBM6Dh4RrpcEmck-10">
          <mxGeometry relative="1" as="geometry">
            <mxPoint x="123.67816091954023" y="470.6666666666667" as="targetPoint" />
            <mxPoint x="267.12643678160924" y="470.6666666666667" as="sourcePoint" />
          </mxGeometry>
        </mxCell>
        <mxCell id="cns3QZBM6Dh4RrpcEmck-9" value="" style="endArrow=none;dashed=1;html=1;rounded=0;" edge="1" parent="1" source="cns3QZBM6Dh4RrpcEmck-10">
          <mxGeometry width="50" height="50" relative="1" as="geometry">
            <mxPoint x="75.86206896551724" y="800" as="sourcePoint" />
            <mxPoint x="75.39984674329503" y="179.33333333333334" as="targetPoint" />
          </mxGeometry>
        </mxCell>
        <mxCell id="7baba1c4bc27f4b0-9" value="" style="html=1;points=[];perimeter=orthogonalPerimeter;rounded=0;shadow=0;comic=0;labelBackgroundColor=none;strokeWidth=1;fontFamily=Verdana;fontSize=12;align=center;fillColor=#4D4D4D;" parent="1" vertex="1">
          <mxGeometry x="67.89272030651341" y="192" width="15.938697318007664" height="88.66666666666667" as="geometry" />
        </mxCell>
        <mxCell id="cns3QZBM6Dh4RrpcEmck-11" value="" style="endArrow=none;dashed=1;html=1;rounded=0;" edge="1" parent="1" target="cns3QZBM6Dh4RrpcEmck-10">
          <mxGeometry width="50" height="50" relative="1" as="geometry">
            <mxPoint x="75.86206896551724" y="800" as="sourcePoint" />
            <mxPoint x="75.39984674329503" y="179.33333333333334" as="targetPoint" />
          </mxGeometry>
        </mxCell>
        <mxCell id="cns3QZBM6Dh4RrpcEmck-10" value="" style="html=1;points=[];perimeter=orthogonalPerimeter;rounded=0;shadow=0;comic=0;labelBackgroundColor=none;strokeWidth=1;fontFamily=Verdana;fontSize=12;align=center;fillColor=#4D4D4D;" vertex="1" parent="1">
          <mxGeometry x="67.89272030651341" y="470.6666666666667" width="15.938697318007664" height="88.66666666666667" as="geometry" />
        </mxCell>
        <mxCell id="cns3QZBM6Dh4RrpcEmck-13" value="jika data&lt;br style=&quot;font-size: 16px;&quot;&gt;tidak ditemukan" style="html=1;verticalAlign=bottom;endArrow=open;dashed=1;endSize=8;labelBackgroundColor=none;fontFamily=Verdana;fontSize=16;entryX=1.038;entryY=0.001;entryDx=0;entryDy=0;entryPerimeter=0;exitX=-0.017;exitY=0.536;exitDx=0;exitDy=0;exitPerimeter=0;" edge="1" parent="1">
          <mxGeometry relative="1" as="geometry">
            <mxPoint x="561.992337164751" y="420" as="targetPoint" />
            <mxPoint x="769.1954022988507" y="420" as="sourcePoint" />
          </mxGeometry>
        </mxCell>
        <mxCell id="cns3QZBM6Dh4RrpcEmck-14" value="jika error" style="html=1;verticalAlign=bottom;endArrow=open;dashed=1;endSize=8;labelBackgroundColor=none;fontFamily=Verdana;fontSize=16;entryX=1.141;entryY=0.526;entryDx=0;entryDy=0;entryPerimeter=0;exitX=0.038;exitY=0.499;exitDx=0;exitDy=0;exitPerimeter=0;" edge="1" parent="1" source="7baba1c4bc27f4b0-13" target="7baba1c4bc27f4b0-10">
          <mxGeometry relative="1" as="geometry">
            <mxPoint x="330.88122605363986" y="444.9026666666667" as="targetPoint" />
            <mxPoint x="536.4904214559388" y="444.9026666666667" as="sourcePoint" />
          </mxGeometry>
        </mxCell>
        <mxCell id="cns3QZBM6Dh4RrpcEmck-16" value="menampilkan&lt;br style=&quot;border-color: var(--border-color); font-size: 16px;&quot;&gt;dashboard" style="html=1;verticalAlign=bottom;endArrow=open;dashed=1;endSize=8;labelBackgroundColor=none;fontFamily=Verdana;fontSize=16;edgeStyle=elbowEdgeStyle;elbow=vertical;exitX=0.038;exitY=0.998;exitDx=0;exitDy=0;exitPerimeter=0;entryX=1.086;entryY=0.998;entryDx=0;entryDy=0;entryPerimeter=0;" edge="1" parent="1" source="7baba1c4bc27f4b0-13" target="7baba1c4bc27f4b0-10">
          <mxGeometry relative="1" as="geometry">
            <mxPoint x="330.88122605363986" y="672.4593333333333" as="targetPoint" />
            <Array as="points">
              <mxPoint x="386.6666666666667" y="672.4593333333333" />
              <mxPoint x="450.42145593869736" y="571.126" />
              <mxPoint x="498.23754789272033" y="393.79266666666666" />
            </Array>
            <mxPoint x="538.0842911877395" y="672.4593333333333" as="sourcePoint" />
          </mxGeometry>
        </mxCell>
        <mxCell id="cns3QZBM6Dh4RrpcEmck-17" value="" style="html=1;points=[];perimeter=orthogonalPerimeter;rounded=0;shadow=0;comic=0;labelBackgroundColor=none;strokeWidth=1;fontFamily=Verdana;fontSize=12;align=center;fillColor=#4D4D4D;" vertex="1" parent="1">
          <mxGeometry x="67.89272030651341" y="673.3333333333334" width="15.938697318007664" height="88.66666666666667" as="geometry" />
        </mxCell>
      </root>
    </mxGraphModel>
  </diagram>
</mxfile>
